# Tiled2Unity generated file. Do not modify by hand.
# Wavefront file for 'Fondo_mesh_0001.obj'

# Vertices (Count = 600)
v 0 -32 -0.1
v -32 -32 -0.1
v -32 0 -0.1
v 0 0 -0.1
v -32 -32 -0.1
v -64 -32 -0.1
v -64 0 -0.1
v -32 0 -0.1
v -64 -32 -0.1
v -96 -32 -0.1
v -96 0 -0.1
v -64 0 -0.1
v -96 -32 -0.1
v -128 -32 -0.1
v -128 0 -0.1
v -96 0 -0.1
v -128 -32 -0.1
v -160 -32 -0.1
v -160 0 -0.1
v -128 0 -0.1
v -160 -32 -0.1
v -192 -32 -0.1
v -192 0 -0.1
v -160 0 -0.1
v -192 -32 -0.1
v -224 -32 -0.1
v -224 0 -0.1
v -192 0 -0.1
v -224 -32 -0.1
v -256 -32 -0.1
v -256 0 -0.1
v -224 0 -0.1
v -256 -32 -0.1
v -288 -32 -0.1
v -288 0 -0.1
v -256 0 -0.1
v -288 -32 -0.1
v -320 -32 -0.1
v -320 0 -0.1
v -288 0 -0.1
v -320 -32 -0.1
v -352 -32 -0.1
v -352 0 -0.1
v -320 0 -0.1
v -352 -32 -0.1
v -384 -32 -0.1
v -384 0 -0.1
v -352 0 -0.1
v -384 -32 -0.1
v -416 -32 -0.1
v -416 0 -0.1
v -384 0 -0.1
v -416 -32 -0.1
v -448 -32 -0.1
v -448 0 -0.1
v -416 0 -0.1
v -448 -32 -0.1
v -480 -32 -0.1
v -480 0 -0.1
v -448 0 -0.1
v 0 -64 -0.2
v -32 -64 -0.2
v -32 -32 -0.2
v 0 -32 -0.2
v -32 -64 -0.2
v -64 -64 -0.2
v -64 -32 -0.2
v -32 -32 -0.2
v -64 -64 -0.2
v -96 -64 -0.2
v -96 -32 -0.2
v -64 -32 -0.2
v -96 -64 -0.2
v -128 -64 -0.2
v -128 -32 -0.2
v -96 -32 -0.2
v -128 -64 -0.2
v -160 -64 -0.2
v -160 -32 -0.2
v -128 -32 -0.2
v -160 -64 -0.2
v -192 -64 -0.2
v -192 -32 -0.2
v -160 -32 -0.2
v -192 -64 -0.2
v -224 -64 -0.2
v -224 -32 -0.2
v -192 -32 -0.2
v -224 -64 -0.2
v -256 -64 -0.2
v -256 -32 -0.2
v -224 -32 -0.2
v -256 -64 -0.2
v -288 -64 -0.2
v -288 -32 -0.2
v -256 -32 -0.2
v -288 -64 -0.2
v -320 -64 -0.2
v -320 -32 -0.2
v -288 -32 -0.2
v -320 -64 -0.2
v -352 -64 -0.2
v -352 -32 -0.2
v -320 -32 -0.2
v -352 -64 -0.2
v -384 -64 -0.2
v -384 -32 -0.2
v -352 -32 -0.2
v -384 -64 -0.2
v -416 -64 -0.2
v -416 -32 -0.2
v -384 -32 -0.2
v -416 -64 -0.2
v -448 -64 -0.2
v -448 -32 -0.2
v -416 -32 -0.2
v -448 -64 -0.2
v -480 -64 -0.2
v -480 -32 -0.2
v -448 -32 -0.2
v 0 -96 -0.3
v -32 -96 -0.3
v -32 -64 -0.3
v 0 -64 -0.3
v -32 -96 -0.3
v -64 -96 -0.3
v -64 -64 -0.3
v -32 -64 -0.3
v -64 -96 -0.3
v -96 -96 -0.3
v -96 -64 -0.3
v -64 -64 -0.3
v -96 -96 -0.3
v -128 -96 -0.3
v -128 -64 -0.3
v -96 -64 -0.3
v -128 -96 -0.3
v -160 -96 -0.3
v -160 -64 -0.3
v -128 -64 -0.3
v -160 -96 -0.3
v -192 -96 -0.3
v -192 -64 -0.3
v -160 -64 -0.3
v -192 -96 -0.3
v -224 -96 -0.3
v -224 -64 -0.3
v -192 -64 -0.3
v -224 -96 -0.3
v -256 -96 -0.3
v -256 -64 -0.3
v -224 -64 -0.3
v -256 -96 -0.3
v -288 -96 -0.3
v -288 -64 -0.3
v -256 -64 -0.3
v -288 -96 -0.3
v -320 -96 -0.3
v -320 -64 -0.3
v -288 -64 -0.3
v -320 -96 -0.3
v -352 -96 -0.3
v -352 -64 -0.3
v -320 -64 -0.3
v -352 -96 -0.3
v -384 -96 -0.3
v -384 -64 -0.3
v -352 -64 -0.3
v -384 -96 -0.3
v -416 -96 -0.3
v -416 -64 -0.3
v -384 -64 -0.3
v -416 -96 -0.3
v -448 -96 -0.3
v -448 -64 -0.3
v -416 -64 -0.3
v -448 -96 -0.3
v -480 -96 -0.3
v -480 -64 -0.3
v -448 -64 -0.3
v 0 -128 -0.4
v -32 -128 -0.4
v -32 -96 -0.4
v 0 -96 -0.4
v -32 -128 -0.4
v -64 -128 -0.4
v -64 -96 -0.4
v -32 -96 -0.4
v -64 -128 -0.4
v -96 -128 -0.4
v -96 -96 -0.4
v -64 -96 -0.4
v -96 -128 -0.4
v -128 -128 -0.4
v -128 -96 -0.4
v -96 -96 -0.4
v -128 -128 -0.4
v -160 -128 -0.4
v -160 -96 -0.4
v -128 -96 -0.4
v -160 -128 -0.4
v -192 -128 -0.4
v -192 -96 -0.4
v -160 -96 -0.4
v -192 -128 -0.4
v -224 -128 -0.4
v -224 -96 -0.4
v -192 -96 -0.4
v -224 -128 -0.4
v -256 -128 -0.4
v -256 -96 -0.4
v -224 -96 -0.4
v -256 -128 -0.4
v -288 -128 -0.4
v -288 -96 -0.4
v -256 -96 -0.4
v -288 -128 -0.4
v -320 -128 -0.4
v -320 -96 -0.4
v -288 -96 -0.4
v -320 -128 -0.4
v -352 -128 -0.4
v -352 -96 -0.4
v -320 -96 -0.4
v -352 -128 -0.4
v -384 -128 -0.4
v -384 -96 -0.4
v -352 -96 -0.4
v -384 -128 -0.4
v -416 -128 -0.4
v -416 -96 -0.4
v -384 -96 -0.4
v -416 -128 -0.4
v -448 -128 -0.4
v -448 -96 -0.4
v -416 -96 -0.4
v -448 -128 -0.4
v -480 -128 -0.4
v -480 -96 -0.4
v -448 -96 -0.4
v 0 -160 -0.5
v -32 -160 -0.5
v -32 -128 -0.5
v 0 -128 -0.5
v -32 -160 -0.5
v -64 -160 -0.5
v -64 -128 -0.5
v -32 -128 -0.5
v -64 -160 -0.5
v -96 -160 -0.5
v -96 -128 -0.5
v -64 -128 -0.5
v -96 -160 -0.5
v -128 -160 -0.5
v -128 -128 -0.5
v -96 -128 -0.5
v -128 -160 -0.5
v -160 -160 -0.5
v -160 -128 -0.5
v -128 -128 -0.5
v -160 -160 -0.5
v -192 -160 -0.5
v -192 -128 -0.5
v -160 -128 -0.5
v -192 -160 -0.5
v -224 -160 -0.5
v -224 -128 -0.5
v -192 -128 -0.5
v -224 -160 -0.5
v -256 -160 -0.5
v -256 -128 -0.5
v -224 -128 -0.5
v -256 -160 -0.5
v -288 -160 -0.5
v -288 -128 -0.5
v -256 -128 -0.5
v -288 -160 -0.5
v -320 -160 -0.5
v -320 -128 -0.5
v -288 -128 -0.5
v -320 -160 -0.5
v -352 -160 -0.5
v -352 -128 -0.5
v -320 -128 -0.5
v -352 -160 -0.5
v -384 -160 -0.5
v -384 -128 -0.5
v -352 -128 -0.5
v -384 -160 -0.5
v -416 -160 -0.5
v -416 -128 -0.5
v -384 -128 -0.5
v -416 -160 -0.5
v -448 -160 -0.5
v -448 -128 -0.5
v -416 -128 -0.5
v -448 -160 -0.5
v -480 -160 -0.5
v -480 -128 -0.5
v -448 -128 -0.5
v 0 -192 -0.6
v -32 -192 -0.6
v -32 -160 -0.6
v 0 -160 -0.6
v -32 -192 -0.6
v -64 -192 -0.6
v -64 -160 -0.6
v -32 -160 -0.6
v -64 -192 -0.6
v -96 -192 -0.6
v -96 -160 -0.6
v -64 -160 -0.6
v -96 -192 -0.6
v -128 -192 -0.6
v -128 -160 -0.6
v -96 -160 -0.6
v -128 -192 -0.6
v -160 -192 -0.6
v -160 -160 -0.6
v -128 -160 -0.6
v -160 -192 -0.6
v -192 -192 -0.6
v -192 -160 -0.6
v -160 -160 -0.6
v -192 -192 -0.6
v -224 -192 -0.6
v -224 -160 -0.6
v -192 -160 -0.6
v -224 -192 -0.6
v -256 -192 -0.6
v -256 -160 -0.6
v -224 -160 -0.6
v -256 -192 -0.6
v -288 -192 -0.6
v -288 -160 -0.6
v -256 -160 -0.6
v -288 -192 -0.6
v -320 -192 -0.6
v -320 -160 -0.6
v -288 -160 -0.6
v -320 -192 -0.6
v -352 -192 -0.6
v -352 -160 -0.6
v -320 -160 -0.6
v -352 -192 -0.6
v -384 -192 -0.6
v -384 -160 -0.6
v -352 -160 -0.6
v -384 -192 -0.6
v -416 -192 -0.6
v -416 -160 -0.6
v -384 -160 -0.6
v -416 -192 -0.6
v -448 -192 -0.6
v -448 -160 -0.6
v -416 -160 -0.6
v -448 -192 -0.6
v -480 -192 -0.6
v -480 -160 -0.6
v -448 -160 -0.6
v 0 -224 -0.7
v -32 -224 -0.7
v -32 -192 -0.7
v 0 -192 -0.7
v -32 -224 -0.7
v -64 -224 -0.7
v -64 -192 -0.7
v -32 -192 -0.7
v -64 -224 -0.7
v -96 -224 -0.7
v -96 -192 -0.7
v -64 -192 -0.7
v -96 -224 -0.7
v -128 -224 -0.7
v -128 -192 -0.7
v -96 -192 -0.7
v -128 -224 -0.7
v -160 -224 -0.7
v -160 -192 -0.7
v -128 -192 -0.7
v -160 -224 -0.7
v -192 -224 -0.7
v -192 -192 -0.7
v -160 -192 -0.7
v -192 -224 -0.7
v -224 -224 -0.7
v -224 -192 -0.7
v -192 -192 -0.7
v -224 -224 -0.7
v -256 -224 -0.7
v -256 -192 -0.7
v -224 -192 -0.7
v -256 -224 -0.7
v -288 -224 -0.7
v -288 -192 -0.7
v -256 -192 -0.7
v -288 -224 -0.7
v -320 -224 -0.7
v -320 -192 -0.7
v -288 -192 -0.7
v -320 -224 -0.7
v -352 -224 -0.7
v -352 -192 -0.7
v -320 -192 -0.7
v -352 -224 -0.7
v -384 -224 -0.7
v -384 -192 -0.7
v -352 -192 -0.7
v -384 -224 -0.7
v -416 -224 -0.7
v -416 -192 -0.7
v -384 -192 -0.7
v -416 -224 -0.7
v -448 -224 -0.7
v -448 -192 -0.7
v -416 -192 -0.7
v -448 -224 -0.7
v -480 -224 -0.7
v -480 -192 -0.7
v -448 -192 -0.7
v 0 -256 -0.8
v -32 -256 -0.8
v -32 -224 -0.8
v 0 -224 -0.8
v -32 -256 -0.8
v -64 -256 -0.8
v -64 -224 -0.8
v -32 -224 -0.8
v -64 -256 -0.8
v -96 -256 -0.8
v -96 -224 -0.8
v -64 -224 -0.8
v -96 -256 -0.8
v -128 -256 -0.8
v -128 -224 -0.8
v -96 -224 -0.8
v -128 -256 -0.8
v -160 -256 -0.8
v -160 -224 -0.8
v -128 -224 -0.8
v -160 -256 -0.8
v -192 -256 -0.8
v -192 -224 -0.8
v -160 -224 -0.8
v -192 -256 -0.8
v -224 -256 -0.8
v -224 -224 -0.8
v -192 -224 -0.8
v -224 -256 -0.8
v -256 -256 -0.8
v -256 -224 -0.8
v -224 -224 -0.8
v -256 -256 -0.8
v -288 -256 -0.8
v -288 -224 -0.8
v -256 -224 -0.8
v -288 -256 -0.8
v -320 -256 -0.8
v -320 -224 -0.8
v -288 -224 -0.8
v -320 -256 -0.8
v -352 -256 -0.8
v -352 -224 -0.8
v -320 -224 -0.8
v -352 -256 -0.8
v -384 -256 -0.8
v -384 -224 -0.8
v -352 -224 -0.8
v -384 -256 -0.8
v -416 -256 -0.8
v -416 -224 -0.8
v -384 -224 -0.8
v -416 -256 -0.8
v -448 -256 -0.8
v -448 -224 -0.8
v -416 -224 -0.8
v -448 -256 -0.8
v -480 -256 -0.8
v -480 -224 -0.8
v -448 -224 -0.8
v 0 -288 -0.9
v -32 -288 -0.9
v -32 -256 -0.9
v 0 -256 -0.9
v -32 -288 -0.9
v -64 -288 -0.9
v -64 -256 -0.9
v -32 -256 -0.9
v -64 -288 -0.9
v -96 -288 -0.9
v -96 -256 -0.9
v -64 -256 -0.9
v -96 -288 -0.9
v -128 -288 -0.9
v -128 -256 -0.9
v -96 -256 -0.9
v -128 -288 -0.9
v -160 -288 -0.9
v -160 -256 -0.9
v -128 -256 -0.9
v -160 -288 -0.9
v -192 -288 -0.9
v -192 -256 -0.9
v -160 -256 -0.9
v -192 -288 -0.9
v -224 -288 -0.9
v -224 -256 -0.9
v -192 -256 -0.9
v -224 -288 -0.9
v -256 -288 -0.9
v -256 -256 -0.9
v -224 -256 -0.9
v -256 -288 -0.9
v -288 -288 -0.9
v -288 -256 -0.9
v -256 -256 -0.9
v -288 -288 -0.9
v -320 -288 -0.9
v -320 -256 -0.9
v -288 -256 -0.9
v -320 -288 -0.9
v -352 -288 -0.9
v -352 -256 -0.9
v -320 -256 -0.9
v -352 -288 -0.9
v -384 -288 -0.9
v -384 -256 -0.9
v -352 -256 -0.9
v -384 -288 -0.9
v -416 -288 -0.9
v -416 -256 -0.9
v -384 -256 -0.9
v -416 -288 -0.9
v -448 -288 -0.9
v -448 -256 -0.9
v -416 -256 -0.9
v -448 -288 -0.9
v -480 -288 -0.9
v -480 -256 -0.9
v -448 -256 -0.9
v 0 -320 -1
v -32 -320 -1
v -32 -288 -1
v 0 -288 -1
v -32 -320 -1
v -64 -320 -1
v -64 -288 -1
v -32 -288 -1
v -64 -320 -1
v -96 -320 -1
v -96 -288 -1
v -64 -288 -1
v -96 -320 -1
v -128 -320 -1
v -128 -288 -1
v -96 -288 -1
v -128 -320 -1
v -160 -320 -1
v -160 -288 -1
v -128 -288 -1
v -160 -320 -1
v -192 -320 -1
v -192 -288 -1
v -160 -288 -1
v -192 -320 -1
v -224 -320 -1
v -224 -288 -1
v -192 -288 -1
v -224 -320 -1
v -256 -320 -1
v -256 -288 -1
v -224 -288 -1
v -256 -320 -1
v -288 -320 -1
v -288 -288 -1
v -256 -288 -1
v -288 -320 -1
v -320 -320 -1
v -320 -288 -1
v -288 -288 -1
v -320 -320 -1
v -352 -320 -1
v -352 -288 -1
v -320 -288 -1
v -352 -320 -1
v -384 -320 -1
v -384 -288 -1
v -352 -288 -1
v -384 -320 -1
v -416 -320 -1
v -416 -288 -1
v -384 -288 -1
v -416 -320 -1
v -448 -320 -1
v -448 -288 -1
v -416 -288 -1
v -448 -320 -1
v -480 -320 -1
v -480 -288 -1
v -448 -288 -1

# Texture cooridinates (Count = 25)
vt 0.02173913 0.9230769
vt 0.04347826 0.9230769
vt 0.04347826 0.9615384
vt 0.02173913 0.9615384
vt 0.06521739 0.9230769
vt 0.06521739 0.9615384
vt 0.08695652 0.9230769
vt 0.08695652 0.9615384
vt 0.1086956 0.9230769
vt 0.1086956 0.9615384
vt 0.02173913 0.8846154
vt 0.04347826 0.8846154
vt 0.06521739 0.8846154
vt 0.08695652 0.8846154
vt 0.1086956 0.8846154
vt 0.02173913 0.8461539
vt 0.04347826 0.8461539
vt 0.06521739 0.8461539
vt 0.08695652 0.8461539
vt 0.1086956 0.8461539
vt 0.02173913 0.8076923
vt 0.04347826 0.8076923
vt 0.06521739 0.8076923
vt 0.08695652 0.8076923
vt 0.1086956 0.8076923

# Normal
vn 0 0 -1

# Mesh description
g Fondo_mesh_0001

# Faces
f 1/1/1 2/2/1 3/3/1 4/4/1
f 5/2/1 6/5/1 7/6/1 8/3/1
f 9/5/1 10/7/1 11/8/1 12/6/1
f 13/2/1 14/5/1 15/6/1 16/3/1
f 17/5/1 18/7/1 19/8/1 20/6/1
f 21/2/1 22/5/1 23/6/1 24/3/1
f 25/5/1 26/7/1 27/8/1 28/6/1
f 29/2/1 30/5/1 31/6/1 32/3/1
f 33/5/1 34/7/1 35/8/1 36/6/1
f 37/2/1 38/5/1 39/6/1 40/3/1
f 41/5/1 42/7/1 43/8/1 44/6/1
f 45/2/1 46/5/1 47/6/1 48/3/1
f 49/2/1 50/5/1 51/6/1 52/3/1
f 53/5/1 54/7/1 55/8/1 56/6/1
f 57/7/1 58/9/1 59/10/1 60/8/1
f 61/11/1 62/12/1 63/2/1 64/1/1
f 65/12/1 66/13/1 67/5/1 68/2/1
f 69/12/1 70/13/1 71/5/1 72/2/1
f 73/12/1 74/13/1 75/5/1 76/2/1
f 77/12/1 78/13/1 79/5/1 80/2/1
f 81/12/1 82/13/1 83/5/1 84/2/1
f 85/12/1 86/13/1 87/5/1 88/2/1
f 89/13/1 90/14/1 91/7/1 92/5/1
f 93/13/1 94/14/1 95/7/1 96/5/1
f 97/13/1 98/14/1 99/7/1 100/5/1
f 101/13/1 102/14/1 103/7/1 104/5/1
f 105/13/1 106/14/1 107/7/1 108/5/1
f 109/13/1 110/14/1 111/7/1 112/5/1
f 113/13/1 114/14/1 115/7/1 116/5/1
f 117/14/1 118/15/1 119/9/1 120/7/1
f 121/16/1 122/17/1 123/12/1 124/11/1
f 125/17/1 126/18/1 127/13/1 128/12/1
f 129/12/1 130/13/1 131/5/1 132/2/1
f 133/13/1 134/14/1 135/7/1 136/5/1
f 137/13/1 138/14/1 139/7/1 140/5/1
f 141/13/1 142/14/1 143/7/1 144/5/1
f 145/13/1 146/14/1 147/7/1 148/5/1
f 149/13/1 150/14/1 151/7/1 152/5/1
f 153/18/1 154/19/1 155/14/1 156/13/1
f 157/18/1 158/19/1 159/14/1 160/13/1
f 161/18/1 162/19/1 163/14/1 164/13/1
f 165/18/1 166/19/1 167/14/1 168/13/1
f 169/18/1 170/19/1 171/14/1 172/13/1
f 173/18/1 174/19/1 175/14/1 176/13/1
f 177/19/1 178/20/1 179/15/1 180/14/1
f 181/11/1 182/12/1 183/2/1 184/1/1
f 185/12/1 186/13/1 187/5/1 188/2/1
f 189/12/1 190/13/1 191/5/1 192/2/1
f 193/12/1 194/13/1 195/5/1 196/2/1
f 197/12/1 198/13/1 199/5/1 200/2/1
f 201/12/1 202/13/1 203/5/1 204/2/1
f 205/12/1 206/13/1 207/5/1 208/2/1
f 209/12/1 210/13/1 211/5/1 212/2/1
f 213/13/1 214/14/1 215/7/1 216/5/1
f 217/12/1 218/13/1 219/5/1 220/2/1
f 221/12/1 222/13/1 223/5/1 224/2/1
f 225/12/1 226/13/1 227/5/1 228/2/1
f 229/13/1 230/14/1 231/7/1 232/5/1
f 233/18/1 234/19/1 235/14/1 236/13/1
f 237/14/1 238/15/1 239/9/1 240/7/1
f 241/16/1 242/17/1 243/12/1 244/11/1
f 245/17/1 246/18/1 247/13/1 248/12/1
f 249/17/1 250/18/1 251/13/1 252/12/1
f 253/12/1 254/13/1 255/5/1 256/2/1
f 257/12/1 258/13/1 259/5/1 260/2/1
f 261/12/1 262/13/1 263/5/1 264/2/1
f 265/12/1 266/13/1 267/5/1 268/2/1
f 269/12/1 270/13/1 271/5/1 272/2/1
f 273/13/1 274/14/1 275/7/1 276/5/1
f 277/17/1 278/18/1 279/13/1 280/12/1
f 281/17/1 282/18/1 283/13/1 284/12/1
f 285/12/1 286/13/1 287/5/1 288/2/1
f 289/12/1 290/13/1 291/5/1 292/2/1
f 293/13/1 294/14/1 295/7/1 296/5/1
f 297/19/1 298/20/1 299/15/1 300/14/1
f 301/11/1 302/12/1 303/2/1 304/1/1
f 305/12/1 306/13/1 307/5/1 308/2/1
f 309/13/1 310/14/1 311/7/1 312/5/1
f 313/17/1 314/18/1 315/13/1 316/12/1
f 317/17/1 318/18/1 319/13/1 320/12/1
f 321/17/1 322/18/1 323/13/1 324/12/1
f 325/12/1 326/13/1 327/5/1 328/2/1
f 329/13/1 330/14/1 331/7/1 332/5/1
f 333/13/1 334/14/1 335/7/1 336/5/1
f 337/17/1 338/18/1 339/13/1 340/12/1
f 341/12/1 342/13/1 343/5/1 344/2/1
f 345/13/1 346/14/1 347/7/1 348/5/1
f 349/13/1 350/14/1 351/7/1 352/5/1
f 353/18/1 354/19/1 355/14/1 356/13/1
f 357/14/1 358/15/1 359/9/1 360/7/1
f 361/16/1 362/17/1 363/12/1 364/11/1
f 365/12/1 366/13/1 367/5/1 368/2/1
f 369/13/1 370/14/1 371/7/1 372/5/1
f 373/17/1 374/18/1 375/13/1 376/12/1
f 377/18/1 378/19/1 379/14/1 380/13/1
f 381/12/1 382/13/1 383/5/1 384/2/1
f 385/12/1 386/13/1 387/5/1 388/2/1
f 389/13/1 390/14/1 391/7/1 392/5/1
f 393/18/1 394/19/1 395/14/1 396/13/1
f 397/17/1 398/18/1 399/13/1 400/12/1
f 401/12/1 402/13/1 403/5/1 404/2/1
f 405/12/1 406/13/1 407/5/1 408/2/1
f 409/13/1 410/14/1 411/7/1 412/5/1
f 413/13/1 414/14/1 415/7/1 416/5/1
f 417/19/1 418/20/1 419/15/1 420/14/1
f 421/11/1 422/12/1 423/2/1 424/1/1
f 425/12/1 426/13/1 427/5/1 428/2/1
f 429/12/1 430/13/1 431/5/1 432/2/1
f 433/17/1 434/18/1 435/13/1 436/12/1
f 437/18/1 438/19/1 439/14/1 440/13/1
f 441/17/1 442/18/1 443/13/1 444/12/1
f 445/12/1 446/13/1 447/5/1 448/2/1
f 449/12/1 450/13/1 451/5/1 452/2/1
f 453/12/1 454/13/1 455/5/1 456/2/1
f 457/17/1 458/18/1 459/13/1 460/12/1
f 461/17/1 462/18/1 463/13/1 464/12/1
f 465/12/1 466/13/1 467/5/1 468/2/1
f 469/12/1 470/13/1 471/5/1 472/2/1
f 473/13/1 474/14/1 475/7/1 476/5/1
f 477/14/1 478/15/1 479/9/1 480/7/1
f 481/16/1 482/17/1 483/12/1 484/11/1
f 485/17/1 486/18/1 487/13/1 488/12/1
f 489/17/1 490/18/1 491/13/1 492/12/1
f 493/17/1 494/18/1 495/13/1 496/12/1
f 497/18/1 498/19/1 499/14/1 500/13/1
f 501/17/1 502/18/1 503/13/1 504/12/1
f 505/17/1 506/18/1 507/13/1 508/12/1
f 509/17/1 510/18/1 511/13/1 512/12/1
f 513/17/1 514/18/1 515/13/1 516/12/1
f 517/17/1 518/18/1 519/13/1 520/12/1
f 521/18/1 522/19/1 523/14/1 524/13/1
f 525/17/1 526/18/1 527/13/1 528/12/1
f 529/17/1 530/18/1 531/13/1 532/12/1
f 533/18/1 534/19/1 535/14/1 536/13/1
f 537/19/1 538/20/1 539/15/1 540/14/1
f 541/21/1 542/22/1 543/17/1 544/16/1
f 545/22/1 546/23/1 547/18/1 548/17/1
f 549/23/1 550/24/1 551/19/1 552/18/1
f 553/22/1 554/23/1 555/18/1 556/17/1
f 557/23/1 558/24/1 559/19/1 560/18/1
f 561/22/1 562/23/1 563/18/1 564/17/1
f 565/23/1 566/24/1 567/19/1 568/18/1
f 569/22/1 570/23/1 571/18/1 572/17/1
f 573/23/1 574/24/1 575/19/1 576/18/1
f 577/22/1 578/23/1 579/18/1 580/17/1
f 581/23/1 582/24/1 583/19/1 584/18/1
f 585/22/1 586/23/1 587/18/1 588/17/1
f 589/22/1 590/23/1 591/18/1 592/17/1
f 593/23/1 594/24/1 595/19/1 596/18/1
f 597/24/1 598/25/1 599/20/1 600/19/1

